HIERARCHY
ROOT Hips
{
	OFFSET 0.000000 0.000000 0.000000
	CHANNELS 6 Xposition Yposition Zposition Zrotation Yrotation Xrotation 
	JOINT LHipJoint
	{
		OFFSET 0.000000 0.000000 0.000000
		CHANNELS 3 Zrotation Yrotation Xrotation
		JOINT LeftUpLeg
		{
			OFFSET 1.363060 -1.794630 0.839290
			CHANNELS 3 Zrotation Yrotation Xrotation
			JOINT LeftLeg
			{
				OFFSET 2.448110 -6.726130 0.000000
				CHANNELS 3 Zrotation Yrotation Xrotation
				JOINT LeftFoot
				{
					OFFSET 2.562200 -7.039590 0.000000
					CHANNELS 3 Zrotation Yrotation Xrotation
					JOINT LeftToeBase
					{
						OFFSET 0.157640 -0.433110 2.322550
						CHANNELS 3 Zrotation Yrotation Xrotation
						End Site
						{
							OFFSET 0.000000 0.000000 0.000000
						}
					}
				}
			}
		}
	}
	JOINT RHipJoint
	{
		OFFSET 0.000000 0.000000 0.000000
		CHANNELS 3 Zrotation Yrotation Xrotation
		JOINT RightUpLeg
		{
			OFFSET -1.305520 -1.794630 0.839290
			CHANNELS 3 Zrotation Yrotation Xrotation
			JOINT RightLeg
			{
				OFFSET -2.542530 -6.985550 0.000000
				CHANNELS 3 Zrotation Yrotation Xrotation
				JOINT RightFoot
				{
					OFFSET -2.568260 -7.056230 0.000000
					CHANNELS 3 Zrotation Yrotation Xrotation
					JOINT RightToeBase
					{
						OFFSET -0.164730 -0.452590 2.363150
						CHANNELS 3 Zrotation Yrotation Xrotation
						End Site
						{
							OFFSET 0.000000 0.000000 0.000000
						}
					}
				}
			}
		}
	}
	JOINT LowerBack
	{
		OFFSET 0.000000 0.000000 0.000000
		CHANNELS 3 Zrotation Yrotation Xrotation
		JOINT Spine
		{
			OFFSET 0.028270 2.035590 -0.193380
			CHANNELS 3 Zrotation Yrotation Xrotation
			JOINT Spine1
			{
				OFFSET 0.056720 2.048850 -0.042750
				CHANNELS 3 Zrotation Yrotation Xrotation
				JOINT Neck
				{
					OFFSET 0.000000 0.000000 0.000000
					CHANNELS 3 Zrotation Yrotation Xrotation
					JOINT Neck1
					{
						OFFSET -0.054170 1.746240 0.172020
						CHANNELS 3 Zrotation Yrotation Xrotation
						JOINT Head
						{
							OFFSET 0.104070 1.761360 -0.123970
							CHANNELS 3 Zrotation Yrotation Xrotation
							End Site
							{
								OFFSET 0.000000 0.000000 0.000000
							}
						}
					}
				}
				JOINT LeftShoulder
				{
					OFFSET 0.000000 0.000000 0.000000
					CHANNELS 3 Zrotation Yrotation Xrotation
					JOINT LeftArm
					{
						OFFSET 3.362410 1.200890 -0.311210
						CHANNELS 3 Zrotation Yrotation Xrotation
						JOINT LeftForeArm
						{
							OFFSET 4.983000 -0.000000 -0.000000
							CHANNELS 3 Zrotation Yrotation Xrotation
							JOINT LeftHand
							{
								OFFSET 3.483560 -0.000000 -0.000000
								CHANNELS 3 Zrotation Yrotation Xrotation
								JOINT LeftFingerBase
								{
									OFFSET 0.000000 0.000000 0.000000
									CHANNELS 3 Zrotation Yrotation Xrotation
									JOINT LeftHandIndex1
									{
										OFFSET 0.715260 -0.000000 -0.000000
										CHANNELS 3 Zrotation Yrotation Xrotation
										End Site
										{
											OFFSET 0.000000 0.000000 0.000000
										}
									}
								}
								JOINT LThumb
								{
									OFFSET 0.000000 0.000000 0.000000
									CHANNELS 3 Zrotation Yrotation Xrotation
									End Site
									{
										OFFSET 0.000000 0.000000 0.000000
									}
								}
							}
						}
					}
				}
				JOINT RightShoulder
				{
					OFFSET 0.000000 0.000000 0.000000
					CHANNELS 3 Zrotation Yrotation Xrotation
					JOINT RightArm
					{
						OFFSET -3.136600 1.374050 -0.404650
						CHANNELS 3 Zrotation Yrotation Xrotation
						JOINT RightForeArm
						{
							OFFSET -5.241900 -0.000000 -0.000000
							CHANNELS 3 Zrotation Yrotation Xrotation
							JOINT RightHand
							{
								OFFSET -3.444170 -0.000000 -0.000000
								CHANNELS 3 Zrotation Yrotation Xrotation
								JOINT RightFingerBase
								{
									OFFSET 0.000000 0.000000 0.000000
									CHANNELS 3 Zrotation Yrotation Xrotation
									JOINT RightHandIndex1
									{
										OFFSET -0.622530 -0.000000 -0.000000
										CHANNELS 3 Zrotation Yrotation Xrotation
										End Site
										{
											OFFSET 0.000000 0.000000 0.000000
										}
									}
								}
								JOINT RThumb
								{
									OFFSET 0.000000 0.000000 0.000000
									CHANNELS 3 Zrotation Yrotation Xrotation
									End Site
									{
										OFFSET 0.000000 0.000000 0.000000
									}
								}
							}
						}
					}
				}
			}
		}
	}
}
MOTION
Frames: 8
Frame Time: 0.008333
3.072418 17.400102 -0.938017 140.288837 -41.537368 -142.191313 -1.299928 -4.496467 2.744574 25.182392 7.272633 -68.046902 -1.354930 -0.592986 -5.895306 0.907481 1.208942 38.429520 0.673500 -0.000001 -50.964500 18.442683 4.723898 -0.673533 -21.301193 3.503066 -11.855136 -2.143733 -2.043857 21.017174 -1.473801 -4.819878 -8.149541 -0.246200 0.000000 -57.522700 -22.642669 -1.168958 1.595665 -5.302216 0.266134 -2.114743 -6.671289 0.352387 1.183538 4.575635 -12.115892 -7.659241 -3.072407 -0.225948 -0.342850 0.000000 0.000000 0.000000 -2.534958 18.605837 2.016600 -64.607792 9.595441 -10.078782 -4.051076 -22.423133 0.012582 6.079873 -0.913315 -0.043106 -0.060420 -0.106070 -0.000000 0.000000 0.000000 0.000000 0.000000 0.000000 0.000000 5.123456 -6.238370 -4.672739 85.047145 18.990510 24.662930 -179.480607 72.526318 179.895161 -9.413214 12.964282 -1.158163 0.124560 -0.863120 -0.000000 0.000000 0.000000 0.000000 0.000000 0.000000 0.000000 
3.071243 17.416596 -0.950779 140.649475 -40.992804 -142.649107 -1.294269 -4.550026 2.472636 21.998906 8.354979 -67.658252 -1.801946 -0.644002 -6.789047 0.702299 -0.653128 37.982177 -0.605299 0.000000 -51.623600 18.420592 4.573207 -0.430486 -21.252804 3.991238 -11.758121 -2.185688 -1.975985 20.487214 -1.470527 -4.836818 -7.846819 -0.277601 0.000000 -57.013100 -22.634390 -1.130750 1.435936 -5.294030 0.305552 -2.144786 -6.641280 0.387367 1.227387 4.590418 -12.131401 -7.740432 -3.054793 -0.223903 -0.358897 0.000000 0.000000 0.000000 -2.620051 18.919665 1.990066 -64.999073 9.657918 -10.788371 -4.039797 -21.819947 0.013190 6.343192 -1.049440 -0.052510 -0.058619 -0.106287 -0.000000 0.000000 0.000000 0.000000 0.000000 0.000000 0.000000 5.113043 -6.199554 -4.659795 85.111010 18.823140 25.068901 -179.496082 72.650868 179.897970 -9.178964 12.969237 -1.129257 0.120562 -0.861215 -0.000000 0.000000 0.000000 0.000000 0.000000 0.000000 0.000000 
3.067437 17.431144 -0.962698 140.915745 -40.606940 -142.921715 -1.315739 -4.553295 2.261121 19.219321 9.131457 -67.512218 -2.159311 -0.671640 -6.970865 0.561257 -1.897636 37.512356 -1.437200 -0.000000 -52.509200 18.393870 4.436848 -0.196998 -21.201309 4.417348 -11.751110 -2.227146 -1.911426 20.037708 -1.487464 -4.950538 -7.600893 -0.310201 0.000000 -56.464000 -22.598439 -1.153123 1.228109 -5.272973 0.286776 -2.175917 -6.601262 0.362479 1.284513 4.622501 -12.163453 -7.817234 -3.034001 -0.221622 -0.372357 0.000000 0.000000 0.000000 -2.663457 19.169615 1.974283 -65.428471 9.752460 -11.510161 -4.025762 -21.176958 0.013801 6.648627 -1.181658 -0.062813 -0.056806 -0.105896 -0.000000 0.000000 0.000000 0.000000 0.000000 0.000000 0.000000 5.106812 -6.223173 -4.648087 85.111532 18.694987 25.482788 -179.509893 72.742845 179.900972 -8.921937 12.970731 -1.097268 0.115966 -0.858955 -0.000000 0.000000 0.000000 0.000000 0.000000 0.000000 0.000000 
3.060148 17.443597 -0.973039 141.142273 -40.388675 -143.077347 -1.382068 -4.511735 2.112585 17.059379 9.549115 -67.407359 -2.406063 -0.667740 -6.586870 0.490020 -2.416000 37.088395 -1.765500 -0.000001 -53.472100 18.347193 4.309340 0.012609 -21.085862 4.815496 -11.778876 -2.262036 -1.850636 19.652618 -1.527331 -5.175009 -7.421630 -0.344801 0.000000 -55.890600 -22.493175 -1.219974 0.989399 -5.232586 0.222852 -2.206010 -6.553048 0.291243 1.351942 4.665710 -12.214770 -7.887420 -3.008149 -0.219005 -0.382421 0.000000 0.000000 0.000000 -2.681751 19.363070 1.966194 -65.880200 9.864667 -12.190511 -4.011138 -20.494852 0.014306 6.951303 -1.292339 -0.072514 -0.055349 -0.104869 -0.000000 0.000000 0.000000 0.000000 0.000000 0.000000 0.000000 5.087556 -6.303860 -4.639827 85.042859 18.587507 25.877825 -179.520634 72.790244 179.903973 -8.656508 12.969540 -1.063997 0.110872 -0.856375 -0.000000 0.000000 0.000000 0.000000 0.000000 0.000000 0.000000 
3.048816 17.454233 -0.981673 141.367380 -40.334851 -143.178646 -1.495982 -4.440856 2.012388 15.461014 9.662949 -67.302488 -2.557929 -0.626622 -5.699667 0.470351 -2.464417 36.752824 -1.781301 -0.000000 -54.352000 18.269504 4.185721 0.190471 -20.865975 5.207360 -11.785294 -2.285086 -1.791720 19.311893 -1.589447 -5.506043 -7.325990 -0.379600 0.000000 -55.133100 -22.299911 -1.314308 0.741480 -5.170808 0.127935 -2.233854 -6.500160 0.188376 1.422868 4.720301 -12.303595 -7.947628 -2.977488 -0.216158 -0.387957 0.000000 0.000000 0.000000 -2.692475 19.474405 1.961813 -66.333903 10.025638 -12.787705 -3.997337 -19.817531 0.014630 7.205161 -1.359921 -0.079515 -0.054504 -0.103445 -0.000000 0.000000 0.000000 0.000000 0.000000 0.000000 0.000000 5.058019 -6.450215 -4.630557 84.899974 18.497394 26.246897 -179.529985 72.796342 179.906832 -8.403563 12.965259 -1.032038 0.105976 -0.853496 -0.000000 0.000000 0.000000 0.000000 0.000000 0.000000 0.000000 
3.033504 17.463031 -0.988538 141.602052 -40.439752 -143.259482 -1.656321 -4.349948 1.960824 14.515497 9.437666 -67.067449 -2.606145 -0.554231 -4.454900 0.501097 -2.088716 36.550810 -1.524599 0.000000 -54.954700 18.159053 4.067092 0.323602 -20.527803 5.576186 -11.729103 -2.293973 -1.735453 18.989336 -1.668736 -5.920210 -7.288702 -0.414600 0.000000 -54.409000 -22.014463 -1.422476 0.503606 -5.088708 0.014171 -2.256911 -6.444914 0.066684 1.495747 4.782782 -12.420063 -7.997529 -2.940932 -0.212980 -0.389319 0.000000 0.000000 0.000000 -2.695382 19.530652 1.958548 -66.773332 10.185401 -13.255961 -3.987524 -19.120838 0.014709 7.379946 -1.378886 -0.082817 -0.054521 -0.101507 -0.000000 0.000000 0.000000 0.000000 0.000000 0.000000 0.000000 5.005631 -6.644766 -4.624321 84.687154 18.392245 26.548905 -179.535251 72.747907 179.909343 -8.173625 12.959619 -1.002791 0.101131 -0.850488 -0.000000 0.000000 0.000000 0.000000 0.000000 0.000000 0.000000 
3.014512 17.470254 -0.994021 141.836559 -40.696375 -143.331219 -1.854910 -4.247243 1.955408 14.194454 8.856402 -66.651193 -2.557468 -0.461241 -2.978638 0.573475 -1.423088 36.512524 -1.088200 -0.000000 -55.165200 18.019810 3.957060 0.403834 -20.080489 5.886052 -11.585403 -2.285986 -1.681666 18.670281 -1.756853 -6.373773 -7.316099 -0.445100 0.000000 -53.556700 -21.649169 -1.536509 0.289657 -4.990021 -0.110770 -2.274193 -6.389028 -0.065689 1.565372 4.853619 -12.583555 -8.035316 -2.899454 -0.209605 -0.386176 0.000000 0.000000 0.000000 -2.700147 19.502023 1.953113 -67.181219 10.372043 -13.573291 -3.982920 -18.450932 0.014524 7.447804 -1.339418 -0.081121 -0.055457 -0.099339 -0.000000 0.000000 0.000000 0.000000 0.000000 0.000000 0.000000 4.938752 -6.901589 -4.616069 84.409100 18.273184 26.783755 -179.538247 72.657641 179.911402 -7.986907 12.953775 -0.978948 0.097107 -0.847414 -0.000000 0.000000 0.000000 0.000000 0.000000 0.000000 0.000000 
2.992868 17.476194 -0.998820 142.039809 -41.099625 -143.374876 -2.080008 -4.133353 2.005603 14.553113 7.824384 -65.949812 -2.405828 -0.367812 -1.473890 0.691451 -0.413329 36.684569 -0.431100 0.000000 -54.954900 17.865639 3.862521 0.421633 -19.557737 6.075647 -11.348052 -2.263211 -1.632271 18.329370 -1.844164 -6.821117 -7.367297 -0.471400 0.000001 -52.794000 -21.235370 -1.654740 0.106352 -4.882506 -0.243576 -2.284483 -6.335843 -0.204947 1.630347 4.936961 -12.784197 -8.060938 -2.854469 -0.206134 -0.379213 0.000000 0.000000 0.000000 -2.692855 19.398129 1.944884 -67.543721 10.554479 -13.726197 -3.985660 -17.802380 0.014081 7.402055 -1.247730 -0.074826 -0.057290 -0.096955 -0.000000 0.000000 0.000000 0.000000 0.000000 0.000000 0.000000 4.864331 -7.207116 -4.607002 84.077564 18.114017 26.922520 -179.537322 72.522598 179.912900 -7.850106 12.947158 -0.961307 0.093895 -0.844443 -0.000000 0.000000 0.000000 0.000000 0.000000 0.000000 0.000000 
